<?xml version="1.0"?>
<svg xmlns="http://www.w3.org/2000/svg" viewBox="1 1 511.99998 511.99998" width="512px" height="512px"><path d="m320.117188 0v15.09375h176.789062v49.023438h-481.8125v-49.023438h280.980469v-15.09375h-296.074219v512h512v-512zm-305.023438 496.90625v-417.695312h481.8125v417.695312zm0 0" fill="#eeeeee"/><path d="m31.589844 32.058594h16.03125v15.09375h-16.03125zm0 0" fill="#eeeeee"/><path d="m63.648438 32.058594h16.03125v15.09375h-16.03125zm0 0" fill="#eeeeee"/><path d="m95.707031 32.058594h16.03125v15.09375h-16.03125zm0 0" fill="#eeeeee"/><path d="m464.378906 32.058594h16.03125v15.09375h-16.03125zm0 0" fill="#eeeeee"/><path d="m32.058594 479.941406h447.882812v-223.941406h-15.09375v208.847656h-417.695312v-353.578125h417.695312v120.6875h15.09375v-135.78125h-447.882812zm0 0" fill="#eeeeee"/><path d="m103.722656 128.234375h-39.605468v39.605469h15.09375v-24.511719h24.511718zm0 0" fill="#eeeeee"/><path d="m447.882812 408.277344h-15.09375v24.511718h-24.511718v15.09375h39.605468zm0 0" fill="#eeeeee"/><path d="m432.320312 128.234375h16.03125v15.09375h-16.03125zm0 0" fill="#eeeeee"/><path d="m432.320312 160.292969h16.03125v15.09375h-16.03125zm0 0" fill="#eeeeee"/><path d="m400.261719 128.234375h16.03125v15.09375h-16.03125zm0 0" fill="#eeeeee"/><path d="m63.648438 432.789062h16.03125v15.09375h-16.03125zm0 0" fill="#eeeeee"/><path d="m95.707031 432.789062h16.03125v15.09375h-16.03125zm0 0" fill="#eeeeee"/><path d="m407.808594 192.351562h-303.617188v191.414063h95.707032v-15.09375h-80.613282v-161.226563h273.429688v161.226563h-168.773438v15.09375h183.867188zm0 0" fill="#eeeeee"/><path d="m336.144531 265.253906c4.210938 3.910156 9.84375 6.308594 16.03125 6.308594 13 0 23.574219-10.578125 23.574219-23.578125s-10.574219-23.574219-23.574219-23.574219c-6.1875 0-11.820312 2.398438-16.03125 6.308594-4.207031-3.910156-9.84375-6.308594-16.027343-6.308594-13 0-23.578126 10.574219-23.578126 23.574219s10.578126 23.578125 23.578126 23.578125c6.183593 0 11.820312-2.398438 16.027343-6.308594zm16.03125-25.75c4.675781 0 8.480469 3.804688 8.480469 8.480469 0 4.679687-3.804688 8.484375-8.480469 8.484375-4.679687 0-8.484375-3.804688-8.484375-8.484375 0-4.675781 3.804688-8.480469 8.484375-8.480469zm-40.539062 8.480469c0-4.675781 3.804687-8.480469 8.480469-8.480469 4.675781 0 8.484374 3.804688 8.484374 8.480469 0 4.679687-3.808593 8.484375-8.484374 8.484375-4.675782 0-8.480469-3.804688-8.480469-8.484375zm0 0" fill="#eeeeee"/><path d="m199.429688 224.410156h-63.179688v47.152344h63.179688zm-15.09375 32.058594h-32.992188v-16.964844h32.992188zm0 0" fill="#eeeeee"/><path d="m143.796875 296.542969h224.40625v15.09375h-224.40625zm0 0" fill="#eeeeee"/><path d="m143.796875 328.597656h64.117187v15.09375h-64.117187zm0 0" fill="#eeeeee"/><path d="m223.941406 328.597656h16.03125v15.09375h-16.03125zm0 0" fill="#eeeeee"/><path d="m256 328.597656h16.03125v15.09375h-16.03125zm0 0" fill="#eeeeee"/><path d="m288.058594 328.597656h16.03125v15.09375h-16.03125zm0 0" fill="#eeeeee"/><path d="m320.117188 328.597656h48.085937v15.09375h-48.085937zm0 0" fill="#eeeeee"/></svg>
